<?xml version="1.0" ?><svg height="32px" version="1.1" viewBox="0 0 32 32" width="32px" xmlns="http://www.w3.org/2000/svg" xmlns:xlink="http://www.w3.org/1999/xlink"><title/><desc/><defs/><g fill="none" fill-rule="evenodd" id="Page-1" stroke="none" stroke-width="1"><g id="number-123"><g id="Page-1" transform="translate(2.000000, 8.000000)"><path d="M5.3537,14.964 L5.3537,5.127 C3.5227,6.532 2.2907,7.235 1.6567,7.235 C1.3537,7.235 1.0857,7.114 0.8517,6.873 C0.6167,6.631 0.4997,6.352 0.4997,6.035 C0.4997,5.667 0.6157,5.397 0.8457,5.224 C1.0767,5.051 1.4837,4.828 2.0677,4.554 C2.9397,4.143 3.6367,3.711 4.1587,3.257 C4.6817,2.803 5.1447,2.295 5.5487,1.732 C5.9517,1.17 6.2147,0.824 6.3377,0.695 C6.4597,0.565 6.6907,0.5 7.0297,0.5 C7.4117,0.5 7.7177,0.648 7.9477,0.943 C8.1787,1.239 8.2937,1.646 8.2937,2.165 L8.2937,14.542 C8.2937,15.991 7.8007,16.715 6.8127,16.715 C6.3737,16.715 6.0207,16.568 5.7537,16.272 C5.4867,15.977 5.3537,15.541 5.3537,14.964" fill="#F42F42" id="Fill-1"/><path d="M5.3537,14.964 L5.3537,5.127 C3.5227,6.532 2.2907,7.235 1.6567,7.235 C1.3537,7.235 1.0857,7.114 0.8517,6.873 C0.6167,6.631 0.4997,6.352 0.4997,6.035 C0.4997,5.667 0.6157,5.397 0.8457,5.224 C1.0767,5.051 1.4837,4.828 2.0677,4.554 C2.9397,4.143 3.6367,3.711 4.1587,3.257 C4.6817,2.803 5.1447,2.295 5.5487,1.732 C5.9517,1.17 6.2147,0.824 6.3377,0.695 C6.4597,0.565 6.6907,0.5 7.0297,0.5 C7.4117,0.5 7.7177,0.648 7.9477,0.943 C8.1787,1.239 8.2937,1.646 8.2937,2.165 L8.2937,14.542 C8.2937,15.991 7.8007,16.715 6.8127,16.715 C6.3737,16.715 6.0207,16.568 5.7537,16.272 C5.4867,15.977 5.3537,15.541 5.3537,14.964 L5.3537,14.964 Z" id="Stroke-3" stroke="#330910"/><path d="M2.4363,5.3405 C3.3773,4.8975 4.1483,4.4165 4.7293,3.9115" id="Stroke-5" stroke="#FFFFFF" stroke-dasharray="1,2,6,2,3" stroke-linecap="round" stroke-linejoin="round" stroke-width="0.5"/><path d="M6.813,15.8465 C6.456,15.8465 6.18,15.7325 5.969,15.4985 C5.753,15.2595 5.643,14.8845 5.643,14.3845 L5.643,14.9635 C5.643,15.4635 5.753,15.8385 5.969,16.0775 C6.18,16.3115 6.456,16.4255 6.813,16.4255 C7.325,16.4255 8.005,16.2305 8.005,14.5425 L8.005,13.9635 C8.005,15.6515 7.325,15.8465 6.813,15.8465" fill="#332E09" id="Fill-7" opacity="0.203766325"/><path d="M11.8196,14.1208 L17.5586,14.1208 C18.1296,14.1208 18.5656,14.2378 18.8666,14.4728 C19.1666,14.7068 19.3166,15.0258 19.3166,15.4288 C19.3166,15.7878 19.1976,16.0918 18.9596,16.3418 C18.7216,16.5908 18.3606,16.7148 17.8766,16.7148 L9.7856,16.7148 C9.2366,16.7148 8.8076,16.5628 8.4996,16.2588 C8.1916,15.9548 8.0376,15.5978 8.0376,15.1868 C8.0376,14.9238 8.1366,14.5738 8.3346,14.1368 C8.5326,13.7008 8.7486,13.3588 8.9836,13.1098 C9.9576,12.0978 10.8376,11.2318 11.6216,10.5098 C12.4056,9.7878 12.9666,9.3128 13.3036,9.0858 C13.9046,8.6608 14.4046,8.2338 14.8046,7.8048 C15.2036,7.3768 15.5076,6.9368 15.7166,6.4858 C15.9256,6.0348 16.0296,5.5938 16.0296,5.1608 C16.0296,4.6918 15.9186,4.2728 15.6946,3.9028 C15.4716,3.5328 15.1666,3.2448 14.7826,3.0398 C14.3976,2.8348 13.9776,2.7318 13.5236,2.7318 C12.5636,2.7318 11.8086,3.1528 11.2586,3.9958 C11.1856,4.1058 11.0626,4.4068 10.8906,4.8978 C10.7186,5.3888 10.5246,5.7658 10.3076,6.0298 C10.0916,6.2938 9.7746,6.4258 9.3566,6.4258 C8.9906,6.4258 8.6866,6.3048 8.4446,6.0628 C8.2026,5.8208 8.0816,5.4908 8.0816,5.0728 C8.0816,4.5678 8.1956,4.0398 8.4226,3.4898 C8.6496,2.9408 8.9886,2.4418 9.4396,1.9948 C9.8906,1.5478 10.4616,1.1868 11.1546,0.9128 C11.8466,0.6378 12.6586,0.4998 13.5896,0.4998 C14.7106,0.4998 15.6676,0.6758 16.4586,1.0278 C16.9716,1.2618 17.4226,1.5848 17.8106,1.9948 C18.1996,2.4058 18.5016,2.8798 18.7176,3.4188 C18.9346,3.9578 19.0426,4.5158 19.0426,5.0948 C19.0426,6.0038 18.8166,6.8308 18.3666,7.5738 C17.9156,8.3178 17.4556,8.9008 16.9866,9.3218 C16.5176,9.7438 15.7316,10.4048 14.6286,11.3068 C13.5256,12.2078 12.7686,12.9078 12.3586,13.4058 C12.1826,13.6038 12.0026,13.8428 11.8196,14.1208" fill="#2FBBF4" id="Fill-9"/><path d="M11.8196,14.1208 L17.5586,14.1208 C18.1296,14.1208 18.5656,14.2378 18.8666,14.4728 C19.1666,14.7068 19.3166,15.0258 19.3166,15.4288 C19.3166,15.7878 19.1976,16.0918 18.9596,16.3418 C18.7216,16.5908 18.3606,16.7148 17.8766,16.7148 L9.7856,16.7148 C9.2366,16.7148 8.8076,16.5628 8.4996,16.2588 C8.1916,15.9548 8.0376,15.5978 8.0376,15.1868 C8.0376,14.9238 8.1366,14.5738 8.3346,14.1368 C8.5326,13.7008 8.7486,13.3588 8.9836,13.1098 C9.9576,12.0978 10.8376,11.2318 11.6216,10.5098 C12.4056,9.7878 12.9666,9.3128 13.3036,9.0858 C13.9046,8.6608 14.4046,8.2338 14.8046,7.8048 C15.2036,7.3768 15.5076,6.9368 15.7166,6.4858 C15.9256,6.0348 16.0296,5.5938 16.0296,5.1608 C16.0296,4.6918 15.9186,4.2728 15.6946,3.9028 C15.4716,3.5328 15.1666,3.2448 14.7826,3.0398 C14.3976,2.8348 13.9776,2.7318 13.5236,2.7318 C12.5636,2.7318 11.8086,3.1528 11.2586,3.9958 C11.1856,4.1058 11.0626,4.4068 10.8906,4.8978 C10.7186,5.3888 10.5246,5.7658 10.3076,6.0298 C10.0916,6.2938 9.7746,6.4258 9.3566,6.4258 C8.9906,6.4258 8.6866,6.3048 8.4446,6.0628 C8.2026,5.8208 8.0816,5.4908 8.0816,5.0728 C8.0816,4.5678 8.1956,4.0398 8.4226,3.4898 C8.6496,2.9408 8.9886,2.4418 9.4396,1.9948 C9.8906,1.5478 10.4616,1.1868 11.1546,0.9128 C11.8466,0.6378 12.6586,0.4998 13.5896,0.4998 C14.7106,0.4998 15.6676,0.6758 16.4586,1.0278 C16.9716,1.2618 17.4226,1.5848 17.8106,1.9948 C18.1996,2.4058 18.5016,2.8798 18.7176,3.4188 C18.9346,3.9578 19.0426,4.5158 19.0426,5.0948 C19.0426,6.0038 18.8166,6.8308 18.3666,7.5738 C17.9156,8.3178 17.4556,8.9008 16.9866,9.3218 C16.5176,9.7438 15.7316,10.4048 14.6286,11.3068 C13.5256,12.2078 12.7686,12.9078 12.3586,13.4058 C12.1826,13.6038 12.0026,13.8428 11.8196,14.1208 L11.8196,14.1208 Z" id="Stroke-11" stroke="#092933" stroke-linejoin="round"/><path d="M10.0513,2.6113 C10.4153,2.2503 10.8943,1.9503 11.4743,1.7203 C12.0613,1.4873 12.7733,1.3693 13.5893,1.3693" id="Stroke-13" stroke="#FFFFFF" stroke-dasharray="1,2,6,2,3" stroke-linecap="round" stroke-linejoin="round" stroke-width="0.5"/><path d="M18.9855,15.1436 C18.9425,15.2996 18.8675,15.4396 18.7505,15.5626 C18.5695,15.7516 18.2755,15.8466 17.8775,15.8466 L9.7855,15.8466 C9.3115,15.8466 8.9575,15.7246 8.7035,15.4736 C8.5295,15.3016 8.4215,15.1126 8.3675,14.9036 C8.3395,15.0246 8.3275,15.1216 8.3275,15.1876 C8.3275,15.5196 8.4505,15.8036 8.7035,16.0536 C8.9575,16.3036 9.3115,16.4256 9.7855,16.4256 L17.8775,16.4256 C18.2755,16.4256 18.5695,16.3306 18.7505,16.1416 C18.9365,15.9466 19.0275,15.7136 19.0275,15.4286 C19.0275,15.3246 19.0105,15.2316 18.9855,15.1436" fill="#332E09" id="Fill-15" opacity="0.203766325"/><path d="M22.1839,6.8649 C22.3059,6.8649 22.9619,6.7769 23.6419,6.6699 L24.1219,6.2799 C24.6009,5.8909 24.8409,5.3319 24.8409,4.6029 C24.8409,4.0469 24.6499,3.5689 24.2679,3.1679 C23.8849,2.7679 23.3689,2.5679 22.7199,2.5679 C22.2799,2.5679 21.9169,2.6289 21.6319,2.7519 C21.3469,2.8739 21.1209,3.0369 20.9549,3.2389 C20.7889,3.4409 20.6319,3.7009 20.4849,4.0179 L20.3369,4.3359 C20.1949,4.6549 19.9879,5.0379 19.8769,5.1869 L19.6889,5.2739 C19.5009,5.3599 19.2849,5.4039 19.0389,5.4039 C18.7509,5.4039 18.4859,5.2859 18.2439,5.0519 C18.0019,4.8169 17.8809,4.5049 17.8809,4.1159 C17.8809,3.7399 17.9949,3.3449 18.2219,2.9299 C18.4499,2.5149 18.7809,2.1199 19.2179,1.7449 C19.6549,1.3699 20.1979,1.0679 20.8469,0.8409 C21.4969,0.6139 22.2219,0.4999 23.0229,0.4999 C23.7229,0.4999 24.3619,0.5959 24.9389,0.7869 C25.5159,0.9779 26.0179,1.2539 26.4429,1.6149 C26.8689,1.9759 27.1899,2.3939 27.4069,2.8709 C27.6229,3.3469 27.7319,3.8589 27.7319,4.4079 C27.7319,5.1289 27.5749,5.7479 27.2609,6.2639 L26.9469,6.7799 C26.3779,7.3269 26.3799,8.0669 26.9499,8.4239 L27.3359,8.8129 C27.7229,9.2029 28.0129,9.6339 28.2079,10.1069 C28.4029,10.5799 28.4999,11.0899 28.4999,11.6389 C28.4999,12.2949 28.3679,12.9299 28.1049,13.5439 C27.8419,14.1569 27.4539,14.7039 26.9409,15.1839 C26.4289,15.6639 25.8209,16.0389 25.1169,16.3089 C24.4139,16.5799 23.6359,16.7149 22.7849,16.7149 C21.9189,16.7149 21.1429,16.5599 20.4569,16.2499 C19.7719,15.9399 19.2069,15.5519 18.7629,15.0859 C18.3199,14.6209 17.9839,14.1389 17.7569,13.6409 C17.5289,13.1429 17.4159,12.7319 17.4159,12.4069 C17.4159,11.9889 17.5509,11.6509 17.8219,11.3949 C18.0919,11.1389 18.4299,11.0109 18.8339,11.0109 C19.0359,11.0109 19.2309,11.0699 19.4179,11.1889 L19.6059,11.3079 C19.7049,11.4779 20.1359,12.4039 20.5639,13.3649 L20.9929,13.8519 C21.4229,14.3389 22.0269,14.5829 22.8059,14.5829 C23.2539,14.5829 23.6849,14.4729 24.0999,14.2529 C24.5149,14.0329 24.8579,13.7059 25.1279,13.2729 C25.3989,12.8399 25.5339,12.3389 25.5339,11.7689 C25.5339,10.9239 25.3029,10.2619 24.8409,9.7819 C24.3799,9.3019 23.7369,9.0619 22.9149,9.0619 C22.7699,9.0619 22.5469,9.0769 22.2439,9.1059 C21.9399,9.1349 21.7459,9.1489 21.6589,9.1489 C21.2619,9.1489 20.9549,9.0499 20.7389,8.8509 C20.5219,8.6529 20.4139,8.3769 20.4139,8.0229 C20.4139,7.6769 20.5439,7.3969 20.8039,7.1839 L21.0639,6.9709 C21.5579,6.9129 22.0619,6.8649 22.1839,6.8649" fill="#2FF489" id="Fill-17"/><path d="M22.1839,6.8649 C22.3059,6.8649 22.9619,6.7769 23.6419,6.6699 L24.1219,6.2799 C24.6009,5.8909 24.8409,5.3319 24.8409,4.6029 C24.8409,4.0469 24.6499,3.5689 24.2679,3.1679 C23.8849,2.7679 23.3689,2.5679 22.7199,2.5679 C22.2799,2.5679 21.9169,2.6289 21.6319,2.7519 C21.3469,2.8739 21.1209,3.0369 20.9549,3.2389 C20.7889,3.4409 20.6319,3.7009 20.4849,4.0179 L20.3369,4.3359 C20.1949,4.6549 19.9879,5.0379 19.8769,5.1869 L19.6889,5.2739 C19.5009,5.3599 19.2849,5.4039 19.0389,5.4039 C18.7509,5.4039 18.4859,5.2859 18.2439,5.0519 C18.0019,4.8169 17.8809,4.5049 17.8809,4.1159 C17.8809,3.7399 17.9949,3.3449 18.2219,2.9299 C18.4499,2.5149 18.7809,2.1199 19.2179,1.7449 C19.6549,1.3699 20.1979,1.0679 20.8469,0.8409 C21.4969,0.6139 22.2219,0.4999 23.0229,0.4999 C23.7229,0.4999 24.3619,0.5959 24.9389,0.7869 C25.5159,0.9779 26.0179,1.2539 26.4429,1.6149 C26.8689,1.9759 27.1899,2.3939 27.4069,2.8709 C27.6229,3.3469 27.7319,3.8589 27.7319,4.4079 C27.7319,5.1289 27.5749,5.7479 27.2609,6.2639 L26.9469,6.7799 C26.3779,7.3269 26.3799,8.0669 26.9499,8.4239 L27.3359,8.8129 C27.7229,9.2029 28.0129,9.6339 28.2079,10.1069 C28.4029,10.5799 28.4999,11.0899 28.4999,11.6389 C28.4999,12.2949 28.3679,12.9299 28.1049,13.5439 C27.8419,14.1569 27.4539,14.7039 26.9409,15.1839 C26.4289,15.6639 25.8209,16.0389 25.1169,16.3089 C24.4139,16.5799 23.6359,16.7149 22.7849,16.7149 C21.9189,16.7149 21.1429,16.5599 20.4569,16.2499 C19.7719,15.9399 19.2069,15.5519 18.7629,15.0859 C18.3199,14.6209 17.9839,14.1389 17.7569,13.6409 C17.5289,13.1429 17.4159,12.7319 17.4159,12.4069 C17.4159,11.9889 17.5509,11.6509 17.8219,11.3949 C18.0919,11.1389 18.4299,11.0109 18.8339,11.0109 C19.0359,11.0109 19.2309,11.0699 19.4179,11.1889 L19.6059,11.3079 C19.7049,11.4779 20.1359,12.4039 20.5639,13.3649 L20.9929,13.8519 C21.4229,14.3389 22.0269,14.5829 22.8059,14.5829 C23.2539,14.5829 23.6849,14.4729 24.0999,14.2529 C24.5149,14.0329 24.8579,13.7059 25.1279,13.2729 C25.3989,12.8399 25.5339,12.3389 25.5339,11.7689 C25.5339,10.9239 25.3029,10.2619 24.8409,9.7819 C24.3799,9.3019 23.7369,9.0619 22.9149,9.0619 C22.7699,9.0619 22.5469,9.0769 22.2439,9.1059 C21.9399,9.1349 21.7459,9.1489 21.6589,9.1489 C21.2619,9.1489 20.9549,9.0499 20.7389,8.8509 C20.5219,8.6529 20.4139,8.3769 20.4139,8.0229 C20.4139,7.6769 20.5439,7.3969 20.8039,7.1839 L21.0639,6.9709 C21.5579,6.9129 22.0619,6.8649 22.1839,6.8649 L22.1839,6.8649 Z" id="Stroke-19" stroke="#09331B"/><path d="M19.7844,2.4036 C20.1364,2.1006 20.5904,1.8506 21.1344,1.6606 C21.6884,1.4666 22.3234,1.3686 23.0224,1.3686" id="Stroke-21" stroke="#FFFFFF" stroke-dasharray="1,2,6,2,3" stroke-linecap="round" stroke-linejoin="round" stroke-width="0.5"/><path d="M28.1965,11.332 C28.1645,11.851 28.0485,12.361 27.8385,12.85 C27.5925,13.424 27.2245,13.943 26.7435,14.393 C26.2605,14.846 25.6775,15.205 25.0135,15.46 C24.3465,15.716 23.5975,15.847 22.7845,15.847 C21.9635,15.847 21.2205,15.698 20.5775,15.407 C19.9285,15.113 19.3885,14.743 18.9725,14.307 C18.5535,13.867 18.2325,13.408 18.0205,12.941 C17.8755,12.625 17.7835,12.351 17.7385,12.117 C17.7185,12.207 17.7055,12.302 17.7055,12.407 C17.7055,12.689 17.8115,13.064 18.0205,13.521 C18.2325,13.987 18.5535,14.446 18.9725,14.886 C19.3885,15.322 19.9285,15.692 20.5775,15.986 C21.2205,16.278 21.9635,16.426 22.7845,16.426 C23.5975,16.426 24.3465,16.296 25.0135,16.039 C25.6775,15.784 26.2605,15.425 26.7435,14.972 C27.2245,14.522 27.5925,14.003 27.8385,13.429 C28.0855,12.855 28.2105,12.252 28.2105,11.638 C28.2105,11.535 28.2045,11.433 28.1965,11.332" fill="#332E09" id="Fill-23" opacity="0.203766325"/></g></g></g></svg>