<?xml version="1.0" ?><svg id="Layer_1" style="enable-background:new 0 0 70 70;" version="1.1" viewBox="0 0 70 70" xml:space="preserve" xmlns="http://www.w3.org/2000/svg" xmlns:xlink="http://www.w3.org/1999/xlink"><style type="text/css">
	.st0{fill:#D7D2D1;}
	.st1{fill:#5EA3D7;}
</style><g><path class="st0" d="M63.3049927,38.8599854H48.6550293V67c0,0.3499756-0.0599976,0.6900024-0.1799927,1h17.9099731   c0.5599976,0,1-0.4500122,1-1V42.9400024C67.3850098,40.6900024,65.5549927,38.8599854,63.3049927,38.8599854z    M57.0150146,63.039978h-4.1600342c-0.5599976,0-1-0.4500122-1-1v-6.25c0-0.5499878,0.4400024-1,1-1h4.1600342V63.039978z    M57.0150146,52.0700073h-4.1600342c-0.5599976,0-1-0.4500122-1-1v-6.25c0-0.5500488,0.4400024-1,1-1h4.1600342V52.0700073z    M64.1849976,62.039978c0,0.5499878-0.4500122,1-1,1h-4.1699829v-8.25h4.1699829c0.5499878,0,1,0.4500122,1,1V62.039978z    M64.1849976,51.0700073c0,0.5499878-0.4500122,1-1,1h-4.1699829v-8.25h4.1699829c0.5499878,0,1,0.4499512,1,1V51.0700073z"/><path class="st0" d="M21.3250122,38.8599854H6.6950073c-2.25,0-4.0800171,1.8300171-4.0800171,4.0800171V67   c0,0.5499878,0.4500122,1,1,1h17.8900146c-0.1199951-0.3099976-0.1799927-0.6500244-0.1799927-1V38.8599854z M10.9849854,63.039978   H6.8150024c-0.5499878,0-1-0.4500122-1-1v-6.25c0-0.5499878,0.4500122-1,1-1h4.1699829V63.039978z M10.9849854,52.0700073   H6.8150024c-0.5499878,0-1-0.4500122-1-1v-6.25c0-0.5500488,0.4500122-1,1-1h4.1699829V52.0700073z M18.1550293,62.039978   c0,0.5499878-0.4500122,1-1,1h-4.1700439v-8.25h4.1700439c0.5499878,0,1,0.4500122,1,1V62.039978z M18.1550293,51.0700073   c0,0.5499878-0.4500122,1-1,1h-4.1700439v-8.25h4.1700439c0.5499878,0,1,0.4499512,1,1V51.0700073z"/><path class="st1" d="M51.0350342,31.1599731L37.8850098,15.7600098l-1.6599731-1.9700317v-1.1300049L45.125,8.9699707   c0.3699951-0.1599731,0.6199951-0.5299683,0.6099854-0.9299927c0-0.4099731-0.2399902-0.7700195-0.6199951-0.9199829   l-8.8899536-3.6099854V3c0-0.5499878-0.4500122-1-1-1c-0.5500488,0-1,0.4500122-1,1v10.7799683L32.5150146,15.75   L19.414978,31.1599731c-0.2599487,0.2999878-0.3099976,0.710022-0.1499634,1.0700073   c0.1599731,0.3499756,0.5200195,0.5800171,0.9099731,0.5800171h3.1500244V67c0,0.5499878,0.4400024,1,1,1H29.125V55.4500122   c0-3.3300171,2.710022-6.0400391,6.039978-6.0400391c3.3300171,0,6.0300293,2.710022,6.0300293,6.0400391V68h4.460022   c0.5499878,0,1-0.4500122,1-1V32.8099976h3.6199951c0.3899536,0,0.7399902-0.2300415,0.9099731-0.5900269   C51.3450317,31.8699951,51.2850342,31.4500122,51.0350342,31.1599731z M34.0750122,45.6900024c0,0.5499878-0.4500122,1-1,1H28.875   c-0.5499878,0-1-0.4500122-1-1v-4.0200195c0-0.5499878,0.4500122-1,1-1h4.2000122c0.5499878,0,1,0.4500122,1,1V45.6900024z    M35.0650024,37.8999634c-3.3699951,0-6.0999756-2.7299805-6.0999756-6.0899658   c0-3.3699951,2.7299805-6.1000366,6.0999756-6.1000366c3.3599854,0,6.0900269,2.7300415,6.0900269,6.1000366   C41.1550293,35.1699829,38.4249878,37.8999634,35.0650024,37.8999634z M42.5650024,45.6900024c0,0.5499878-0.4500122,1-1,1   h-4.2000122c-0.5499878,0-1-0.4500122-1-1v-4.0200195c0-0.5499878,0.4500122-1,1-1h4.2000122c0.5499878,0,1,0.4500122,1,1   V45.6900024z"/></g></svg>