<svg xmlns="http://www.w3.org/2000/svg"
     id="logo-lectopolis"
     viewBox="0 0 445 226">
    <style>
        .logo-lectopolis-building {
            fill:#000000;
        }
        .logo-lectopolis-lecto{
            fill:#504c4e;
        }
        .logo-lectopolis-polis{
            fill:#b1b1b7;
        }
    </style>
    <path
        d="M445.4 160.1h-1.6v-39.7l-8.6-5.1h-13.3V64.2h-20.3V119l-8.4-.1-6-2V53.3h-9.1v-9.2h-20.3v9.2h-7.3V119h-8.9V95.2h-9.2v-9.1h-16.5v9.1h-5.5V139h-17.6l-5.5-5.4h-15.1V98.9h-18.4v38.3h-25.5v19.2h-1.7v-20.9h25.5V97.2h21.8v34.7H288l5.5 5.5h15.2V93.6h5.5v-9.2h19.9v9.2h9.1v23.7h5.7V51.6h7.3v-9.1h10v-43h1.7v43h11.8v9.1h9.1v64.1l4.8 1.6h6.4V62.5h23.5v51.1h12.2l9.7 5.9z"
        class="logo-lectopolis-building"/>
    <path
        d="M-.3 198.6V135h18.4v48.1h23.3v15.5H-.3zM90.3 196.4c-5.1 2.2-11.3 3.2-18.7 3.2-8.7 0-15-2.2-18.8-6.5-3.8-4.3-5.8-10.2-5.8-17.6 0-8 2.1-14.2 6.2-18.7 4.2-4.5 10.1-6.7 17.8-6.7 7.1 0 12.4 1.9 16.1 5.7 3.7 3.8 5.5 8.8 5.5 14.9 0 1.4-.1 2.8-.3 4.4-.2 1.6-.4 2.8-.5 3.6l-.3 1.3H65.3c.6 4.2 4 6.3 10.2 6.3 2.3 0 4.5-.2 6.6-.6 2.1-.4 3.7-.8 4.7-1.2l1.4-.6 2.1 12.5zm-15-27.7c0-3.9-1.6-5.8-4.9-5.8-3.4 0-5.2 2.4-5.3 7.2h10.2v-1.4zM125.4 164c-7.1 0-10.6 3.6-10.6 10.9 0 7.2 3.6 10.8 10.8 10.8 1.3 0 2.5-.1 3.8-.3 1.3-.2 2.3-.4 2.9-.7l1-.3 2.2 12.9c-3.7 1.5-8.1 2.2-13.5 2.2-8.1 0-14.3-2.2-18.7-6.5-4.4-4.3-6.6-10.4-6.6-18.2 0-7.9 2.2-14 6.7-18.3 4.5-4.3 10.8-6.5 19.1-6.5 2.4 0 4.7.2 6.8.5s3.7.7 4.7 1.1l1.5.5-2.2 13.1c-2.4-.7-5.1-1.2-7.9-1.2zM172.5 197.5c-3.2 1.4-7.3 2.2-12.2 2.2-5.5 0-9.7-1.4-12.5-4.1-2.8-2.8-4.2-7.6-4.2-14.5v-15.7h-4.7v-14.1h5l2.1-11.8h15.7v11.8H172l-.5 14.1h-9.6V181c0 3 1.7 4.5 5 4.5.8 0 1.6-.1 2.3-.2.7-.1 1.3-.3 1.6-.5l.4-.2 1.3 12.9zM183.8 193c-4.3-4.4-6.5-10.5-6.5-18.2s2.2-13.7 6.5-18.1c4.3-4.4 10.4-6.6 18.3-6.6s13.9 2.2 18.3 6.6c4.3 4.4 6.5 10.4 6.5 18.1s-2.2 13.7-6.5 18.2c-4.3 4.4-10.4 6.7-18.3 6.7-7.9-.1-14-2.3-18.3-6.7zm9.3-47.6l8-16.1h18.3l-11.9 16.1h-14.4zm15.7 29.4c0-7.3-2.2-11-6.7-11s-6.7 3.7-6.7 11c0 7.4 2.2 11.1 6.7 11.1s6.7-3.7 6.7-11.1z"
        class="logo-lectopolis-lecto"/>
    <path
        d="M251.1 151.2v5.3c.1-.2-.2-.4 0-.7.2-.3.8-.8 1.7-1.5.9-.8 1.8-1.4 2.7-2 1-.6 2.2-1.1 3.8-1.5 1.6-.4 3.2-.7 4.9-.7 5.3 0 9.6 2.1 12.9 6.2 3.3 4.1 4.9 9.9 4.9 17.3 0 8.8-2.3 15.4-7 19.6-4.6 4.3-10.6 6.4-17.9 6.4-1.9 0-3.4-.1-5-.4V226H234v-74.8h17.1zm.9 34c1.3.5 2.7.7 4.3.7 2.6 0 4.6-.9 5.8-2.6 1.2-1.7 1.8-4.5 1.8-8.2 0-7-2.2-10.5-6.6-10.5-.9 0-1.8.1-2.7.4-.9.2-1.5.5-1.9.7l-.7.4v19.1zM293.6 193c-4.3-4.4-6.5-10.5-6.5-18.2s2.2-13.7 6.5-18.1c4.3-4.4 10.4-6.6 18.3-6.6s13.9 2.2 18.3 6.6c4.3 4.4 6.5 10.4 6.5 18.1s-2.2 13.7-6.5 18.2c-4.3 4.4-10.4 6.7-18.3 6.7-7.8-.1-13.9-2.3-18.3-6.7zm25.1-18.2c0-7.3-2.2-11-6.7-11s-6.7 3.7-6.7 11c0 7.4 2.2 11.1 6.7 11.1 4.4 0 6.7-3.7 6.7-11.1zM381 143.6c-6.6 0-9.9-2.6-9.9-7.9 0-5.5 3.4-8.2 10.1-8.2 6.4 0 9.6 2.7 9.6 8 0 5.4-3.3 8.1-9.8 8.1zm-8.9 51.3v-47.4h18.1v47.4h-18.1zM400.2 181.9c4 2.3 8.7 3.4 14.2 3.4 3.9 0 5.8-.7 5.8-2.2 0-.2 0-.4-.1-.5-.1-.2-.1-.3-.3-.5l-.4-.4c-.1-.1-.4-.2-.6-.4-.3-.1-.5-.2-.7-.3l-.9-.3c-.4-.1-.8-.2-1.1-.3-.3-.1-.7-.1-1.2-.3-.5-.1-.9-.2-1.3-.4-1.7-.4-3.1-.8-4.3-1.2-1.2-.4-2.6-1-4.3-1.9-1.6-.9-3-1.8-4-2.9-1-1-1.9-2.5-2.7-4.2-.8-1.8-1.1-3.7-1.1-5.9 0-4.8 1.8-8.6 5.3-11.4 3.5-2.8 8.9-4.2 16.2-4.2 3.1 0 6 .3 8.8.8 2.7.5 4.7 1 5.9 1.5l1.7.8-2.9 12.5c-3.8-1.8-8.1-2.7-12.7-2.7-3.7 0-5.6.7-5.6 2.2 0 .4.1.7.3.9.2.3.6.5 1.3.8.6.2 1.2.4 1.7.6.5.1 1.3.4 2.5.7 1.2.3 2.1.6 2.9.8 5.1 1.5 8.8 3.3 11.1 5.5 2.3 2.2 3.4 5.3 3.4 9.4 0 5.3-1.9 9.2-5.8 11.8-3.8 2.6-9.3 3.9-16.4 3.9-3.4 0-6.6-.3-9.6-.9-3-.6-5.1-1.2-6.4-1.8l-1.9-.9 3.2-12zM343.3 126.3h18.2v69.3h-18.2z"
        class="logo-lectopolis-polis"/>
</svg>
